<?xml version="1.0" standalone="no"?>
<!DOCTYPE svg PUBLIC "-//W3C//DTD SVG 20010904//EN"
 "http://www.w3.org/TR/2001/REC-SVG-20010904/DTD/svg10.dtd">
<svg version="1.0" xmlns="http://www.w3.org/2000/svg"
 width="512.000000pt" height="512.000000pt" viewBox="0 0 512.000000 512.000000"
 preserveAspectRatio="xMidYMid meet">
<metadata>
Created by potrace 1.16, written by Peter Selinger 2001-2019
</metadata>
<g transform="translate(0.000000,512.000000) scale(0.100000,-0.100000)"
fill="#000000" stroke="none">
<path d="M2689 3691 c-118 -137 -217 -250 -221 -250 -4 -1 -77 80 -164 180
-86 99 -160 177 -164 172 -4 -4 -79 -109 -165 -233 -87 -124 -158 -226 -160
-228 -1 -1 -84 77 -185 175 -101 97 -185 173 -186 167 -2 -5 -29 -153 -60
-329 -31 -176 -58 -322 -60 -324 -2 -2 -133 15 -290 38 -157 23 -288 41 -290
39 -2 -3 25 -137 61 -299 36 -162 65 -299 65 -304 0 -7 -124 -24 -310 -44
-197 -22 -307 -38 -303 -44 3 -6 89 -122 190 -260 102 -137 183 -250 181 -252
-2 -2 -106 -46 -231 -98 -126 -52 -231 -98 -234 -101 -3 -3 24 -45 62 -93 37
-49 126 -165 199 -260 l131 -172 283 -1 282 0 0 80 0 80 -239 0 -239 0 -112
146 c-62 80 -108 149 -104 153 5 4 111 50 236 101 143 59 225 97 220 104 -3 6
-77 107 -164 224 -87 118 -158 217 -158 221 0 4 114 20 252 35 139 15 254 29
256 31 2 2 -24 126 -57 276 -33 151 -58 276 -55 278 2 3 115 -12 251 -32 136
-20 249 -34 251 -33 3 4 92 493 92 509 0 5 64 -52 143 -126 109 -104 145 -133
154 -124 6 7 77 107 158 222 80 116 149 211 153 213 4 1 74 -74 155 -168 81
-93 151 -170 155 -170 4 0 95 104 202 230 107 126 198 229 202 229 3 1 48 -73
98 -163 l92 -163 221 83 c122 46 222 82 224 81 1 -2 27 -104 58 -227 30 -123
57 -226 60 -228 3 -3 120 18 262 46 141 29 258 50 260 48 4 -3 -55 -232 -72
-283 -4 -13 79 -42 130 -46 27 -2 27 -2 100 268 40 148 72 272 69 274 -2 2
-144 -24 -315 -58 -171 -34 -312 -61 -314 -59 -1 2 -29 111 -61 243 -32 132
-59 241 -60 243 0 1 -108 -38 -240 -88 -131 -49 -241 -90 -244 -90 -4 0 -18
21 -33 48 -14 26 -66 118 -115 205 l-89 158 -214 -250z"/>
<path d="M3131 2998 l-201 -213 61 -57 61 -57 77 82 c43 45 93 100 112 121
l36 39 58 -162 c32 -88 63 -161 69 -161 30 1 141 50 138 62 -8 36 -198 558
-203 558 -4 0 -97 -96 -208 -212z"/>
<path d="M1996 3128 c-8 -18 -55 -132 -105 -252 -50 -121 -90 -223 -89 -228 3
-7 132 -68 143 -68 1 0 30 70 65 155 35 85 68 155 73 155 5 0 45 -29 88 -65
44 -36 83 -64 87 -61 5 3 29 31 54 63 l46 59 -156 124 c-212 170 -190 158
-206 118z"/>
<path d="M3864 2783 c3 -16 8 -53 12 -84 l6 -56 52 -6 c78 -8 143 -43 216
-117 71 -71 99 -121 159 -277 45 -121 86 -191 162 -281 59 -69 85 -91 257
-217 56 -41 102 -81 102 -89 0 -18 -142 -170 -194 -208 -53 -38 -98 -37 -230
8 -59 20 -109 34 -110 32 -1 -1 -14 -34 -29 -72 -20 -53 -24 -72 -14 -78 6 -4
53 -21 102 -37 237 -79 307 -62 486 118 118 118 149 167 149 237 0 88 -34 129
-211 257 -177 127 -274 249 -324 407 -76 238 -258 428 -456 475 -35 8 -81 15
-102 15 -37 0 -38 -1 -33 -27z"/>
<path d="M2405 2528 c-99 -138 -183 -256 -187 -263 -5 -8 16 -29 58 -59 62
-44 67 -46 79 -29 8 10 62 86 122 170 59 84 111 152 114 153 4 0 44 -50 89
-111 53 -70 88 -108 96 -105 8 3 39 24 69 47 l54 41 -152 203 c-84 112 -154
204 -157 204 -3 1 -86 -112 -185 -251z"/>
<path d="M3623 2436 c-94 -45 -203 -115 -264 -173 -71 -66 -132 -154 -244
-348 -116 -202 -182 -302 -232 -351 -85 -85 -236 -158 -403 -194 -142 -31
-287 -40 -672 -40 l-368 0 0 -80 0 -80 409 0 c446 0 556 8 730 55 167 45 297
111 405 206 54 48 168 216 284 419 147 259 215 331 399 421 l102 51 -21 51
c-11 29 -24 62 -29 75 -5 12 -12 22 -16 22 -5 -1 -40 -16 -80 -34z"/>
<path d="M1163 2358 c3 -13 22 -137 43 -277 l38 -253 70 7 c39 4 76 10 82 13
7 5 2 60 -17 182 -15 96 -25 178 -22 183 2 4 62 7 134 7 l129 0 0 80 0 80
-231 0 -231 0 5 -22z"/>
<path d="M3982 2274 c-128 -66 -94 -256 49 -271 81 -8 147 47 156 128 5 51
-18 102 -58 132 -37 27 -106 32 -147 11z"/>
<path d="M1790 1884 l0 -294 80 0 80 0 0 180 c0 99 3 180 7 180 4 0 92 -27
196 -61 104 -33 193 -57 197 -52 13 13 49 137 42 144 -4 4 -141 50 -304 102
l-298 94 0 -293z"/>
<path d="M3725 1443 c-8 -46 -50 -88 -101 -102 -23 -7 -142 -11 -296 -11
l-258 0 0 -81 0 -80 298 3 297 3 57 28 c92 45 148 119 167 222 10 51 4 55 -95
55 l-62 0 -7 -37z"/>
</g>
</svg>
